# xmcd CD database file
#
# Track frame offsets:
#	150
#	19057
#	47948
#	68696
#	90566
#	108784
#	125984
#	158153
#	185659
#	198443
#	226513
#	245377
#
# Disc length: 3558 seconds
#
# Revision: 2
# Processed by: cddbd v1.5.2PL0 Copyright (c) Steve Scherf et al.
# Submitted via: CDex 1.51
#
DISCID=990de40c
DTITLE=Various Artist - Enjoy Jazz Compilation Volume 2
DYEAR=2007
DGENRE=Jazz
TTITLE0=DJ Jazzy Jeff feat. CL Smooth - All I Know
TTITLE1=Kammerflimmer Kollektief - Palimpsest
TTITLE2=The Cinematic Orchestra feat. Fontella Bass - Familiar Ground
TTITLE3=Barbara Lahr - A Queen Called Malingam
TTITLE4=Tuomi - Th'expense Of Spirit
TTITLE5=The Neal Cowly Trio - Little Secrets
TTITLE6=Battles - Atlas
TTITLE7=Hazmat Modine - Bahamut
TTITLE8=Trio Mediaeval - Rolandskvadet
TTITLE9=Maya Homburger and Barry Guy - Sonata Seconda
TTITLE10=Dino Saluzzi and Anja Lechner - Tango a mi padre
TTITLE11=Stefano Battaglia - Totò e Ninetto
EXTD=YEAR: 2007
EXTT0=
EXTT1=
EXTT2=
EXTT3=
EXTT4=
EXTT5=
EXTT6=
EXTT7=
EXTT8=
EXTT9=
EXTT10=
EXTT11=
PLAYORDER=
